<svg xmlns="http://www.w3.org/2000/svg" viewBox="0 0 64 64" fill="none">
  <rect width="64" height="64" rx="14" fill="#0a0a0a"/>
  <path d="M20 22h24a4 4 0 0 1 4 4v16a6 6 0 0 1-6 6H22a6 6 0 0 1-6-6V26a4 4 0 0 1 4-4Z" fill="#161616" stroke="#2a2a2a"/>
  <path d="M17 29h30v6H17z" fill="#d1e29d"/>
  <path d="M33.5 36.4c0-1.1-1-1.8-2.4-2.2v-2c.8.1 1.6.4 2.2.8l.7-1.7a6 6 0 0 0-2.9-.9V29h-1.5v1.4c-1.8.3-3 1.5-3 3.2 0 1.9 1.4 2.7 3 3.2v2.1a5 5 0 0 1-2.8-1l-.8 1.7c.9.7 2.2 1.1 3.6 1.2V43h1.5v-1.6c1.9-.3 3.1-1.5 3.1-3.3Zm-4.9-2.9c0-.7.4-1.2 1.1-1.5v1.8c-.7-.2-1.1-.4-1.1-.3Zm2.5 6v-1.9c.7.2 1.2.5 1.2 1.1s-.4 1-.2.8Z" fill="#d1e29d"/>
</svg>
